<?xml version="1.0" ?><svg height="100px" version="1.1" viewBox="0 0 160 100" width="160px" xmlns="http://www.w3.org/2000/svg" xmlns:sketch="http://www.bohemiancoding.com/sketch/ns" xmlns:xlink="http://www.w3.org/1999/xlink"><title/><defs/><g fill="none" fill-rule="evenodd" id="Page-1" stroke="none" stroke-width="1"><g id="world-pay"><path d="M148,1.01146687e-06 C140,1.76644588e-06 55.3007812,-1.60318373e-06 8,1.01146687e-06 C4,1.23257532e-06 -1.84741111e-13,4.00000101 1.42108547e-14,8.00000101 L1.42108547e-14,88.000001 C-4.62839855e-07,96.000001 4,100.000001 12,100.000001 C56.6232096,100.000001 140,100.000002 148,100.000001 C156,100.000001 160,96.000001 160,88.000001 L160,12.000001 C160,4.00000101 156,1.01146687e-06 148,1.01146687e-06 Z M148,1.01146687e-06" fill="#265697" id="Rectangle-1"/><path d="M6.84271888,31.052 L10.652759,31.052 L16.5964217,54.0788495 L16.6726225,54.0788495 L23.0353896,31.052 L27.2264337,31.052 L33.5892008,54.0788495 L33.6654016,54.0788495 L39.6090643,31.052 L43.4191044,31.052 L35.5704217,59.8559036 L31.7222811,59.8559036 L25.169012,36.3408524 L25.0928112,36.3408524 L18.5776426,59.8559036 L14.729502,59.8559036 L6.84271888,31.052 Z M41.1717229,50.8261084 C41.1717229,49.5052879 41.419373,48.2733872 41.9146807,47.1303695 C42.4099884,45.9873517 43.0894388,44.9840512 43.9530522,44.1204378 C44.8166656,43.2568243 45.8326662,42.577374 47.0010843,42.0820663 C48.1695025,41.5867586 49.4268032,41.3391084 50.7730241,41.3391084 C52.119245,41.3391084 53.3765457,41.5867586 54.5449639,42.0820663 C55.713382,42.577374 56.7293826,43.2568243 57.592996,44.1204378 C58.4566094,44.9840512 59.1360598,45.9873517 59.6313675,47.1303695 C60.1266752,48.2733872 60.3743253,49.5052879 60.3743253,50.8261084 C60.3743253,52.146929 60.1266752,53.3851796 59.6313675,54.5408976 C59.1360598,55.6966156 58.4566094,56.6999161 57.592996,57.5508293 C56.7293826,58.4017425 55.713382,59.0748429 54.5449639,59.5701506 C53.3765457,60.0654583 52.119245,60.3131084 50.7730241,60.3131084 C49.4268032,60.3131084 48.1695025,60.0654583 47.0010843,59.5701506 C45.8326662,59.0748429 44.8166656,58.4017425 43.9530522,57.5508293 C43.0894388,56.6999161 42.4099884,55.6966156 41.9146807,54.5408976 C41.419373,53.3851796 41.1717229,52.146929 41.1717229,50.8261084 C41.1717229,50.8261084 41.1717229,52.146929 41.1717229,50.8261084 Z M44.8293614,50.8261084 C44.8293614,51.7405226 44.9690615,52.5850731 45.2484659,53.3597851 C45.5278702,54.1344972 45.9215704,54.7948975 46.4295783,55.341006 C46.9375862,55.8871145 47.5598865,56.3189147 48.296498,56.6364197 C49.0331094,56.9539246 49.8586099,57.1126747 50.7730241,57.1126747 C51.6874383,57.1126747 52.5129388,56.9539246 53.2495502,56.6364197 C53.9861616,56.3189147 54.608462,55.8871145 55.1164699,55.341006 C55.6244778,54.7948975 56.018178,54.1344972 56.2975823,53.3597851 C56.5769867,52.5850731 56.7166867,51.7405226 56.7166867,50.8261084 C56.7166867,49.9116942 56.5769867,49.0671438 56.2975823,48.2924317 C56.018178,47.5177197 55.6244778,46.8573193 55.1164699,46.3112108 C54.608462,45.7651024 53.9861616,45.3333021 53.2495502,45.0157972 C52.5129388,44.6982923 51.6874383,44.5395422 50.7730241,44.5395422 C49.8586099,44.5395422 49.0331094,44.6982923 48.296498,45.0157972 C47.5598865,45.3333021 46.9375862,45.7651024 46.4295783,46.3112108 C45.9215704,46.8573193 45.5278702,47.5177197 45.2484659,48.2924317 C44.9690615,49.0671438 44.8293614,49.9116942 44.8293614,50.8261084 C44.8293614,50.8261084 44.8293614,49.9116942 44.8293614,50.8261084 Z M61.6796707,41.7963133 L65.1087068,41.7963133 L65.1087068,44.5776426 L65.1849076,44.5776426 C65.4135112,44.0950351 65.7183113,43.6568848 66.0993173,43.2631787 C66.4803232,42.8694726 66.9057734,42.5329224 67.3756807,42.2535181 C67.845588,41.9741137 68.3599383,41.7518636 68.918747,41.586761 C69.4775557,41.4216585 70.036356,41.3391084 70.5951647,41.3391084 C71.1539733,41.3391084 71.6619736,41.4153085 72.1191807,41.5677108 L71.9667791,45.2634498 C71.6873748,45.1872486 71.4079746,45.1237486 71.1285703,45.0729478 C70.8491659,45.022147 70.5697658,44.996747 70.2903614,44.996747 C68.6139354,44.996747 67.3312347,45.4666472 66.4422209,46.4064618 C65.5532071,47.3462765 65.1087068,48.8067772 65.1087068,50.788008 L65.1087068,59.8559036 L61.6796707,59.8559036 L61.6796707,41.7963133 Z M77.4725582,31.052 L77.4725582,59.8559036 L74.0435221,59.8559036 L74.0435221,31.052 L77.4725582,31.052 Z M95.5895703,60.3099976 L95.5895703,57.2650763 L95.5133695,57.2650763 C94.8529592,58.2302913 93.9449087,58.9795917 92.7891908,59.513 C91.6334728,60.0464083 90.4460222,60.3131084 89.2268032,60.3131084 C87.8297815,60.3131084 86.5661308,60.0718083 85.4358133,59.5892008 C84.3054957,59.1065933 83.3402952,58.4334929 82.5401827,57.5698795 C81.7400703,56.7062661 81.12412,55.7029656 80.6923133,54.5599478 C80.2605065,53.41693 80.0446064,52.1723294 80.0446064,50.8261084 C80.0446064,49.4798875 80.2605065,48.2289368 80.6923133,47.0732189 C81.12412,45.9175009 81.7400703,44.9142004 82.5401827,44.0632871 C83.3402952,43.2123739 84.3054957,42.5456236 85.4358133,42.0630161 C86.5661308,41.5804086 87.8297815,41.3391084 89.2268032,41.3391084 C90.5222233,41.3391084 91.741424,41.6121586 92.8844418,42.1582671 C94.0274595,42.7043756 94.90376,43.447326 95.5133695,44.3871406 L95.5895703,44.3871406 L95.5895703,31.052 L99.0186064,31.052 L99.0186064,60.3099976 L95.5895703,60.3099976 Z M89.6459076,57.1126747 C90.5603218,57.1126747 91.3858223,56.9539246 92.1224337,56.6364197 C92.8590452,56.3189147 93.4813455,55.8871145 93.9893534,55.341006 C94.4973613,54.7948975 94.8910615,54.1344972 95.1704659,53.3597851 C95.4498702,52.5850731 95.5895703,51.7405226 95.5895703,50.8261084 C95.5895703,49.9116942 95.4498702,49.0671438 95.1704659,48.2924317 C94.8910615,47.5177197 94.4973613,46.8573193 93.9893534,46.3112108 C93.4813455,45.7651024 92.8590452,45.3333021 92.1224337,45.0157972 C91.3858223,44.6982923 90.5603218,44.5395422 89.6459076,44.5395422 C88.7314934,44.5395422 87.905993,44.6982923 87.1693815,45.0157972 C86.4327701,45.3333021 85.8104697,45.7651024 85.3024618,46.3112108 C84.794454,46.8573193 84.4007537,47.5177197 84.1213494,48.2924317 C83.8419451,49.0671438 83.702245,49.9116942 83.702245,50.8261084 C83.702245,51.7405226 83.8419451,52.5850731 84.1213494,53.3597851 C84.4007537,54.1344972 84.794454,54.7948975 85.3024618,55.341006 C85.8104697,55.8871145 86.4327701,56.3189147 87.1693815,56.6364197 C87.905993,56.9539246 88.7314934,57.1126747 89.6459076,57.1126747 C89.6459076,57.1126747 88.7314934,57.1126747 89.6459076,57.1126747 Z M111.56357,31 C113.290797,31 114.713198,31.2349501 115.830815,31.7048574 C116.948433,32.1747647 117.831083,32.7716651 118.478793,33.4955763 C119.126503,34.2194876 119.577353,35.032288 119.831357,35.934002 C120.085361,36.835716 120.212361,37.7056665 120.212361,38.5438795 C120.212361,39.3820925 120.085361,40.252043 119.831357,41.153757 C119.577353,42.055471 119.126503,42.8682715 118.478793,43.5921827 C117.831083,44.316094 116.948433,44.9129943 115.830815,45.3829016 C114.713198,45.8528089 113.290797,46.087759 111.56357,46.087759 L105.734209,46.087759 L105.734209,60.3099976 L102.07657,60.3099976 L102.07657,31 L111.56357,31 Z M105.734209,42.7681446 L110.534859,42.7681446 C111.24607,42.7681446 111.950921,42.7109945 112.649432,42.5966928 C113.347943,42.482391 113.970243,42.2728409 114.516351,41.9680361 C115.06246,41.6632314 115.50061,41.2250812 115.830815,40.6535723 C116.16102,40.0820634 116.32612,39.339113 116.32612,38.4246988 C116.32612,37.5102846 116.16102,36.7673342 115.830815,36.1958253 C115.50061,35.6243164 115.06246,35.1861662 114.516351,34.8813614 C113.970243,34.5765567 113.347943,34.3670066 112.649432,34.2527048 C111.950921,34.138403 111.24607,34.081253 110.534859,34.081253 L105.734209,34.081253 L105.734209,42.7681446 Z M123.222835,42.0058655 C124.492855,41.5613586 125.762856,41.3391084 127.032876,41.3391084 C128.353696,41.3391084 129.490347,41.5042085 130.442861,41.8344137 C131.395376,42.1646188 132.176427,42.609119 132.786036,43.1679277 C133.395646,43.7267364 133.846496,44.3680867 134.1386,45.091998 C134.430705,45.8159092 134.576755,46.5715597 134.576755,47.3589719 L134.576755,56.5792691 C134.576755,57.2142789 134.589455,57.7984793 134.614855,58.3318876 C134.640256,58.8652958 134.678356,59.8273901 134.729157,60.3099976 L131.681124,60.3099976 C131.604923,59.3955833 131.566823,58.0270889 131.566823,57.1126747 L131.490622,57.1126747 C130.728611,58.2810929 129.82691,59.1065933 128.785494,59.5892008 C127.744078,60.0718083 126.537577,60.3131084 125.165956,60.3131084 C124.327743,60.3131084 123.527642,60.1988084 122.765631,59.9702048 C122.003619,59.7416013 121.336868,59.3987011 120.765359,58.941494 C120.193851,58.4842869 119.743,57.9191366 119.412795,57.2460261 C119.08259,56.5729156 118.91749,55.7918652 118.91749,54.9028514 C118.91749,53.7344332 119.17784,52.7565327 119.698548,51.9691205 C120.219256,51.1817082 120.930457,50.5403579 121.832171,50.0450502 C122.733885,49.5497425 123.787985,49.1941423 124.994504,48.978239 C126.201023,48.7623356 127.490073,48.6543855 128.861695,48.6543855 L131.376321,48.6543855 L131.376321,47.8923775 C131.376321,47.4351704 131.287421,46.9779702 131.109618,46.5207631 C130.931816,46.0635559 130.665116,45.6508057 130.30951,45.2825 C129.953905,44.9141943 129.509404,44.6220941 128.975996,44.4061908 C128.442588,44.1902874 127.807587,44.0823373 127.070976,44.0823373 C126.410566,44.0823373 125.832715,44.1458374 125.337408,44.2728394 C124.8421,44.3998413 124.39125,44.5585914 123.984843,44.7490944 C123.578437,44.9395973 123.210137,45.1618475 122.879932,45.4158514 C122.549727,45.6698554 122.232226,45.9111555 121.927422,46.139759 L119.87,44.0061365 C120.835215,43.1171227 121.952816,42.4503724 123.222835,42.0058655 Z M130.547502,51.169012 C129.734689,51.169012 128.902839,51.2134621 128.051926,51.3023635 C127.201012,51.3912648 126.426312,51.5627149 125.727801,51.8167189 C125.02929,52.0707228 124.45779,52.426323 124.013283,52.8835301 C123.568776,53.3407372 123.346526,53.9249375 123.346526,54.6361486 C123.346526,55.6775648 123.695776,56.4268652 124.394287,56.8840723 C125.092798,57.3412794 126.038949,57.5698795 127.232767,57.5698795 C128.172582,57.5698795 128.972682,57.4111294 129.633092,57.0936245 C130.293503,56.7761196 130.826903,56.3633693 131.233309,55.8553614 C131.639716,55.3473536 131.931816,54.7822032 132.109618,54.1598936 C132.287421,53.5375839 132.376321,52.9216336 132.376321,52.3120241 L132.376321,51.169012 L130.547502,51.169012 Z M135.396185,41.7963133 L139.358627,41.7963133 L144.730783,55.8934618 L144.806984,55.8934618 L149.912438,41.7963133 L153.608177,41.7963133 L145.035586,63.7421446 C144.730782,64.5295568 144.413281,65.2471072 144.083076,65.8948173 C143.752871,66.5425273 143.359171,67.0949776 142.901964,67.5521847 C142.444757,68.0093918 141.892306,68.364992 141.244596,68.618996 C140.596886,68.8729999 139.803136,69 138.863321,69 C138.355313,69 137.840963,68.96825 137.320255,68.904749 C136.799547,68.841248 136.297897,68.7078979 135.815289,68.5046948 L136.234394,65.3804618 C136.920204,65.6598662 137.606005,65.7995663 138.291815,65.7995663 C138.825224,65.7995663 139.276074,65.7297162 139.64438,65.5900141 C140.012685,65.4503119 140.330185,65.2471118 140.59689,64.9804076 C140.863594,64.7137035 141.085844,64.4025533 141.263647,64.0469478 C141.441449,63.6913423 141.619249,63.284942 141.797052,62.8277349 L142.901964,59.9702048 L135.396185,41.7963133 Z M135.396185,41.7963133" fill="#FFFFFF" id="WorldPay"/></g></g></svg>