<?xml version="1.0" ?><svg height="100px" version="1.1" viewBox="0 0 160 100" width="160px" xmlns="http://www.w3.org/2000/svg" xmlns:sketch="http://www.bohemiancoding.com/sketch/ns" xmlns:xlink="http://www.w3.org/1999/xlink"><title/><defs/><g fill="none" fill-rule="evenodd" id="Page-1" stroke="none" stroke-width="1"><g id="square" transform="translate(0.000000, -1.000000)"><path d="M148,1.01146687e-06 C140,1.76644588e-06 55.3007812,-1.60318373e-06 8,1.01146687e-06 C4,1.23257532e-06 -1.84741111e-13,4.00000101 1.42108547e-14,8.00000101 L1.42108547e-14,88.000001 C-4.62839855e-07,96.000001 4,100.000001 12,100.000001 C56.6232096,100.000001 140,100.000002 148,100.000001 C156,100.000001 160,96.000001 160,88.000001 L160,12.000001 C160,4.00000101 156,1.01146687e-06 148,1.01146687e-06 Z M148,1.01146687e-06" fill="#F6F6F6" id="Rectangle-1"/><path d="M58.0008974,84 C51.9496635,84 47,79.0495401 47,72.9997757 L47,72.9997757 L47,29.000673 C47,22.9491138 51.9496635,18 58.0008974,18 L58.0008974,18 L101.999103,18 C108.050337,18 113,22.9491138 113,29.000673 L113,29.000673 L113,72.9997757 C113,79.0495401 108.050337,84 101.999103,84 L101.999103,84 L58.0008974,84 L58.0008974,84 L58.0008974,84 L58.0008974,84 Z M59,34.4152794 L59,68.5851587 C59,70.46365 60.5375657,72 62.4146224,72 L62.4146224,72 L96.5866917,72 C98.4641865,72 100,70.46365 100,68.5851587 L100,68.5851587 L100,34.4152794 C100,32.5367881 98.4641865,31 96.5866917,31 L96.5866917,31 L62.4146224,31 C60.5375657,31 59,32.5367881 59,34.4152794 L59,34.4152794 Z M73.7776448,59 C72.7988832,59 72,58.1997806 72,57.221646 L72,57.221646 L72,44.7787529 C72,43.8002194 72.7988832,43 73.7776448,43 L73.7776448,43 L86.2215575,43 C87.1995214,43 88,43.8002194 88,44.7787529 L88,44.7787529 L88,57.221646 C88,58.1997806 87.1995214,59 86.2215575,59 L86.2215575,59 L73.7776448,59 L73.7776448,59 L73.7776448,59 L73.7776448,59 Z M73.7776448,59" fill="#5F5F5F" id="path150"/></g></g></svg>