<?xml version="1.0" ?><svg height="100px" version="1.1" viewBox="0 0 160 100" width="160px" xmlns="http://www.w3.org/2000/svg" xmlns:sketch="http://www.bohemiancoding.com/sketch/ns" xmlns:xlink="http://www.w3.org/1999/xlink"><title/><defs/><g fill="none" fill-rule="evenodd" id="Page-1" stroke="none" stroke-width="1"><g id="Group"><path d="M148,1.01146687e-06 C140,1.76644588e-06 55.3007812,-1.60318373e-06 8,1.01146687e-06 C4,1.23257532e-06 -1.98951966e-13,4.00000101 0,8.00000101 L0,88.000001 C-4.6283987e-07,96.000001 4,100.000001 12,100.000001 C56.6232096,100.000001 140,100.000002 148,100.000001 C156,100.000001 160,96.000001 160,88.000001 L160,12.000001 C160,4.00000101 156,1.01146687e-06 148,1.01146687e-06 Z M148,1.01146687e-06" fill="#F6F6F6" id="Rectangle-1"/><path d="M68.7706027,46.8361897 C64.75267,41.1961373 59.1563091,36.2569451 52.8171487,32.8020435 C51.8501767,32.2761178 50.7654795,32 49.6748683,32 C47.2041456,32 44.9505823,33.3716327 43.7884557,35.5833743 C42.0532423,38.8847528 43.2780828,43.0023092 46.5208975,44.7713965 C56.3042164,50.0975422 62.6150457,60.2575039 63.3559188,72 C63.3559188,72 63.3537128,71.9738361 63.3537128,71.969927 C63.2430014,70.6618307 63.4514965,69.3825649 64.0445249,68.1651558 C64.1236048,67.9956751 64.2180878,67.8152838 64.3358133,67.6185168 C67.3871863,62.5043875 69,56.6177469 69,50.5978757 C69,49.3349817 68.9129453,48.0814657 68.7705989,46.8362052" fill="#265697" id="path34"/><path d="M88.2971353,75.1606771 C92.0834131,67.3662776 94,59.0018327 94,50.3046668 C94,47.3147218 93.7897396,45.1349073 93.6307679,43.7548683 C88.6574451,36.0025769 81.444208,29.0731176 73,24 C73.00721,24.0038678 73.1953859,24.1278426 73.2092729,24.1365404 C73.7942944,24.5462997 74.2867932,24.9767679 74.8004047,25.6260594 C74.9255171,25.7862082 75.0997904,26.0116583 75.2437426,26.2467729 C79.7417059,33.486727 82.1172144,41.8053366 82.1172144,50.3046668 C82.1172144,51.3184344 82.0823402,52.3297164 82.0159106,53.3380967 C85.6228132,60.0254015 87.5904067,67.6266562 87.5904067,75.6028796 C87.5904067,76.2365698 87.6020445,77.2557248 87.586449,78 C87.6213233,77.1668116 87.8366698,76.2861331 88.1449778,75.5165933 C88.1935745,75.3952411 88.2423161,75.2749886 88.2971471,75.1606771" fill="#DFAC16" id="path40"/><path d="M106.183914,34.2648152 C105.00767,29.0834282 103.262233,24.0246312 100.992194,19.2230266 C99.7783592,16.6577348 97.1708402,15 94.3439574,15 C93.2512584,15 92.1880544,15.2421438 91.1924867,15.7193916 C87.5306797,17.4730726 85.9718222,21.9085622 87.7123156,25.582554 C91.4475184,33.5075971 93.2936493,41.880897 93.2936493,50.5782074 C93.2936493,59.2749627 91.4379156,67.6390128 87.7740522,75.4330443 C87.7187655,75.5516303 87.0778268,76.9321574 87.0778268,78.5256965 C87.071946,78.9732615 87.1255672,79.6419898 87.265499,80.2405859 C87.740714,82.3356722 89.1018868,84.2365156 91.2802884,85.2880599 C92.2754425,85.7599263 93.3290439,86 94.4189959,86 C97.1006011,86 99.585474,84.5061327 100.866805,82.1614469 C102.334571,79.3896298 103.816334,75.7495995 105.107268,71.0632669 C105.515673,69.652093 105.857547,68.3265141 106.179111,66.8936655 C107.37415,61.6034948 108,56.1515262 108,50.5782074 C108,45.0711532 107.37415,39.5399405 106.183914,34.2648152" fill="#27AE60" id="path36"/><path d="M76.2317886,26.3968476 C76.1005049,26.1787929 75.9478725,25.9757999 75.79524,25.7755707 C75.2998191,25.1288679 74.7058998,24.5922982 74.0392912,24.1589522 C72.9096265,23.4258839 71.5514374,23 70.1748281,23 C69.0330285,23 68.4472004,23.1376316 67.6254474,23.4636082 C66.7827701,23.7962181 65.8879112,24.2516736 65.0796937,25.0970854 C64.2770594,25.9358648 63.7951686,26.7908111 63.4583763,27.6826532 C62.7815829,29.4708969 62.8633396,31.8216889 64.045321,33.703898 C66.5282939,37.657767 67.9894457,42.1433695 68.5251873,46.7623187 C68.6695897,47.9918843 68.7579019,49.2296014 68.7579019,50.4765783 C68.7579019,56.4205769 67.1217927,62.2330241 64.0263471,67.2826965 C63.9178032,67.4591595 63.8225138,67.6415612 63.7308514,67.8224458 C63.1292572,69.0245111 62.9117515,70.3281396 63.0317353,71.5955697 C63.236127,73.7422612 64.4169937,75.773433 66.4161211,76.9743938 C66.9310773,77.2821292 67.4782592,77.5142807 68.0439964,77.6870099 C68.7136763,77.8866854 69.4052568,78 70.1067458,78 C72.6190159,78 74.8977341,76.731603 76.2012336,74.6059151 C80.121922,68.2111573 82.4102671,60.9752702 82.9002475,53.5127616 C82.9656791,52.503466 83,51.4923706 83,50.4765783 C83,41.9695335 80.66087,33.6433732 76.2317886,26.3968476" fill="#BF3126" id="path38"/></g></g></svg>